<svg id="Layer_2" data-name="Layer 2" xmlns="http://www.w3.org/2000/svg" viewBox="0 0 45 39.16"><defs><style>.cls-1{fill:#2c2b2b;}.cls-2{fill:#2dd473;}</style></defs><title>BedIcon</title><rect class="cls-1" y="11.37" width="5.29" height="27.79" rx="1.23" ry="1.23"/><rect class="cls-1" x="39.71" y="27.25" width="5.29" height="11.91" rx="0.92" ry="0.92"/><rect class="cls-1" x="5.29" y="27.25" width="39.71" height="6.62"/><path class="cls-1" d="M19.85,16.66H37a8,8,0,0,1,8,8v2.59a0,0,0,0,1,0,0H19.85a0,0,0,0,1,0,0V16.66A0,0,0,0,1,19.85,16.66Z"/><circle class="cls-2" cx="12.57" cy="19.97" r="5.96"/><path class="cls-1" d="M.81,13l3.1-4.71c.3-.44.58-.82.89-1.25V7H1.09V5.84H6.32v.91L3.24,11.39c-.28.45-.56.85-.87,1.26v0h4v1.15H.81Z" transform="translate(0 -5.84)"/><path class="cls-1" d="M7.83,15.06l2.65-4c.25-.37.49-.69.76-1.06v0H8.07V9h4.46v.78l-2.61,4c-.24.38-.48.72-.75,1.07v0h3.42v1H7.83Z" transform="translate(0 -5.84)"/><path class="cls-1" d="M13.93,16.54l1.75-2.65c.17-.25.33-.46.5-.7v0H14.09v-.66H17V13l-1.72,2.62c-.16.25-.32.47-.5.71v0h2.26V17H13.93Z" transform="translate(0 -5.84)"/></svg>