<svg id="Layer_2" data-name="Layer 2" xmlns="http://www.w3.org/2000/svg" viewBox="0 0 42.42 42.36"><defs><style>.cls-1{fill:#fff;}.cls-2{fill:#2dd473;}</style></defs><circle class="cls-1" cx="21.18" cy="21.18" r="21.18"/><path class="cls-2" d="M21.92,38.84a16.55,16.55,0,0,0-.23-2.79L18,30a10.75,10.75,0,0,1-4.78-1.44,11,11,0,0,1-4.46-5.05l-.53-1.18C6.43,18.22,6.1,16.17,4.44,12.15c-.05-.13-.11-.28-.18-.44a21.16,21.16,0,0,0,17,31.94A17,17,0,0,0,21.92,38.84Z" transform="translate(-1.29 -1.29)"/><path class="cls-2" d="M22.5,1.29A21.14,21.14,0,0,0,5.44,9.94,20.78,20.78,0,0,1,15.92,14.8a20.86,20.86,0,0,1,6.62,11.38Q18.33,22.63,14,19.07l-3.54-2.89,2.07,2.95q5.32,7.57,10.72,14.79a7.69,7.69,0,0,1,.92,1.74c.4,1.08.46,2.07.33,4.55-.06.95-.14,2.11-.27,3.41A21.2,21.2,0,0,0,22.5,1.29Zm14.2,22c-.86,2.58-.55,3.53-1.67,5.44a9.25,9.25,0,0,1-3.93,3.77,9,9,0,0,1-4.76.85c.74-1.08,1.5-2.16,2.27-3.25q2.63-3.7,5.25-7.18c-2.05,1.59-4.14,3.25-6.24,5-1,.86-2.07,1.73-3.08,2.59a15,15,0,0,1,2.2-5.6c4.08-6.19,11.57-7,12.82-7.09A20.12,20.12,0,0,0,36.7,23.3Z" transform="translate(-1.29 -1.29)"/></svg>