<svg id="Layer_1" data-name="Layer 1" xmlns="http://www.w3.org/2000/svg" viewBox="0 0 43.25 33.51"><defs><style>.cls-1{fill:#2dd473;}.cls-2{fill:#2c2b2b;}</style></defs><title>FavoritesIcon</title><path class="cls-1" d="M22.43,38.67v-.93c-4.68-5.53-3-13.48,2-16.48,4.85-2.87,12.4-.93,15.48,5.24.49-.47,4.85-4.75,4-10.84A12.15,12.15,0,0,0,40,8.49c-4.55-4-10.38-2.91-11.36-2.71a14,14,0,0,0-6.14,3C21.82,8.27,16.24,4.12,9.62,6a12.3,12.3,0,0,0-7.34,5.41,11.78,11.78,0,0,0-1.16,8.74,13.17,13.17,0,0,0,2.65,5.18C9,32,19.76,37.37,22.43,38.67Z" transform="translate(-0.75 -5.49)"/><path class="cls-2" d="M30,21.43A8.79,8.79,0,1,0,39,30.21,8.87,8.87,0,0,0,30,21.43Zm5,8-2.4,1.71a.3.3,0,0,0-.11.33l.92,2.77a.51.51,0,0,1-.78.56L30,33l-2.57,1.84a.51.51,0,0,1-.78-.56l.86-2.6a.54.54,0,0,0-.2-.6l-2.26-1.61a.5.5,0,0,1,.3-.91h2.79a.55.55,0,0,0,.52-.37l.86-2.6a.51.51,0,0,1,1,0l.86,2.6a.54.54,0,0,0,.51.37h2.79A.5.5,0,0,1,35,29.42Z" transform="translate(-0.75 -5.49)"/></svg>