<svg id="Layer_1" data-name="Layer 1" xmlns="http://www.w3.org/2000/svg" viewBox="0 0 77.14 73.57"><defs><style>.cls-1{fill:#2c2b2b;}</style></defs><title>StarIcon</title><path class="cls-1" d="M24.64-13l7.72,23.76a2,2,0,0,0,1.92,1.39h25a2,2,0,0,1,1.18,3.66L40.24,30.44a2,2,0,0,0-.73,2.26l7.72,23.76a2,2,0,0,1-3.11,2.26L23.91,44a2,2,0,0,0-2.38,0L1.32,58.72a2,2,0,0,1-3.11-2.26L5.93,32.7a2,2,0,0,0-.73-2.26L-15,15.76a2,2,0,0,1,1.19-3.66h25a2,2,0,0,0,1.93-1.39L20.8-13A2,2,0,0,1,24.64-13Z" transform="translate(15.85 14.45)"/></svg>