<svg id="Layer_2" data-name="Layer 2" xmlns="http://www.w3.org/2000/svg" viewBox="0 0 43.64 33.49"><defs><style>.cls-1{fill:#2c2b2b;}.cls-2{fill:none;stroke:#2c2b2b;stroke-linecap:round;stroke-miterlimit:10;stroke-width:2px;}</style></defs><path class="cls-1" d="M2.44,18.87l4.43-7.7h9l-3.63,6.89a2.17,2.17,0,0,0-.1.45,1.4,1.4,0,0,0,0,.35Z" transform="translate(-0.3 -4.56)"/><path class="cls-1" d="M40.5,18.87l-4.43-7.7h-9l3.63,6.89a2.17,2.17,0,0,1,.1.45,1.4,1.4,0,0,1,0,.35Z" transform="translate(-0.3 -4.56)"/><path class="cls-1" d="M21.45,4.56,13.81,18.87H29.08ZM22,15.36a2.13,2.13,0,1,1,1.54-1.53A2.13,2.13,0,0,1,22,15.36Z" transform="translate(-0.3 -4.56)"/><path class="cls-1" d="M4.49,20.4l0,8.4c1.27.23,2.62.44,4,.62,2.16.27,4.2.42,6.1.49V20.4ZM9,27.7H7.55a.75.75,0,0,1-.75-.76V22.21a.75.75,0,0,1,.75-.76H9Zm3.32-.76a.72.72,0,0,1-.68.76H10.33V21.45h1.34a.72.72,0,0,1,.68.76Z" transform="translate(-0.3 -4.56)"/><path class="cls-1" d="M38.51,20.4l0,8.4c-1.28.23-2.62.44-4,.62-2.16.27-4.2.42-6.1.49V20.4ZM34,27.7h1.48a.76.76,0,0,0,.76-.76V22.21a.76.76,0,0,0-.76-.76H34Zm-3.32-.76a.73.73,0,0,0,.69.76h1.34V21.45H31.34a.73.73,0,0,0-.69.76Z" transform="translate(-0.3 -4.56)"/><path class="cls-1" d="M16.2,20.43v9.7l2.79.1V25.45a2.4,2.4,0,0,1,4.8,0v4.78c1,0,2-.05,3-.1v-9.7Z" transform="translate(-0.3 -4.56)"/><path class="cls-1" d="M42,31.24A1.51,1.51,0,0,0,40.22,30a99.83,99.83,0,0,1-18,1.67A102.63,102.63,0,0,1,2.73,29.82a1.5,1.5,0,1,0-.57,2.94c1.41.28,2.83.52,4.25.74a4.36,4.36,0,0,1,2.35-.71h0a4.22,4.22,0,0,1,2.58.93,2.53,2.53,0,0,0,1,.52h.1a1.06,1.06,0,0,0,.31,0,2.2,2.2,0,0,0,1.37-.56,4,4,0,0,1,2.52-.91,3.8,3.8,0,0,1,2.35.88,2,2,0,0,0,1.25.53,2.29,2.29,0,0,0,1.48-.54,4.12,4.12,0,0,1,2.65-.87,4.06,4.06,0,0,1,2.4,1,1.84,1.84,0,0,0,1.23.52,2,2,0,0,0,1.35-.56,4,4,0,0,1,2.52-.94h0a3.8,3.8,0,0,1,2.48,1l.27.19c2.06-.25,4.11-.54,6.14-.92A1.5,1.5,0,0,0,42,31.24Z" transform="translate(-0.3 -4.56)"/><path class="cls-2" d="M1.3,35.64A5.2,5.2,0,0,0,4.71,37c1.82-.07,2.3-1.38,4.07-1.37s2.16,1.51,4,1.47,2.07-1.5,3.85-1.47S18.5,36.91,20.21,37c1.88.08,2.25-1.49,4.13-1.41S26.29,37,28,37.05s2.09-1.51,3.88-1.5,2,1.47,3.76,1.5,2.29-1.44,4.13-1.5a4.74,4.74,0,0,1,3.16,1.28" transform="translate(-0.3 -4.56)"/></svg>