<svg id="Layer_2" data-name="Layer 2" xmlns="http://www.w3.org/2000/svg" viewBox="0 0 44.61 41.16"><defs><style>.cls-1{fill:#2c2b2b;}</style></defs><title>TypeHouseIcon</title><path class="cls-1" d="M21.83,8.12,7.27,22.68a2.36,2.36,0,0,0-.69,1.66V42.28a1.23,1.23,0,0,0,1.23,1.23H16.1a1.23,1.23,0,0,0,1.22-1.23V30.08a1.35,1.35,0,0,1,1.35-1.34h8a1.34,1.34,0,0,1,1.35,1.34v12.2a1.23,1.23,0,0,0,1.22,1.23h8.29a1.23,1.23,0,0,0,1.23-1.23V24.34a2.39,2.39,0,0,0-.68-1.66L23.56,8.12A1.22,1.22,0,0,0,21.83,8.12Z" transform="translate(-0.39 -2.35)"/><path class="cls-1" d="M23.56,2.69,44.62,22.51a1.21,1.21,0,0,1,0,1.74l-1,.95a1.2,1.2,0,0,1-1.7,0L23.55,6.76a1.21,1.21,0,0,0-1.71,0L3.4,25.2a1.2,1.2,0,0,1-1.7,0l-.95-.95a1.21,1.21,0,0,1,0-1.74L21.83,2.69A1.28,1.28,0,0,1,23.56,2.69Z" transform="translate(-0.39 -2.35)"/><rect class="cls-1" x="34.39" y="4.9" width="4.03" height="2.69" rx="0.55" ry="0.55"/><polygon class="cls-1" points="37.08 12.17 37.08 4.9 29.36 4.9 37.08 12.17"/></svg>