<svg id="Layer_2" data-name="Layer 2" xmlns="http://www.w3.org/2000/svg" viewBox="0 0 38.76 44"><defs><style>.cls-1{fill:#2c2b2b;}</style></defs><title>TypeVactionIcon</title><path class="cls-1" d="M32.5,4.14h-20a1.39,1.39,0,0,0-1.4,1.39v8H33.9v-8A1.39,1.39,0,0,0,32.5,4.14ZM20.9,10.47a1,1,0,0,1-1,1H15.52a1,1,0,0,1-1-1V8.22a1,1,0,0,1,1-1h4.39a1,1,0,0,1,1,1Zm9.58,0a1,1,0,0,1-1,1H25.09a1,1,0,0,1-1-1V8.22a1,1,0,0,1,1-1h4.39a1,1,0,0,1,1,1Z" transform="translate(-3.12 -1)"/><path class="cls-1" d="M40.1,13.57H4.9a1.88,1.88,0,0,0-1.78,2V45H16.89a8.69,8.69,0,0,1-.09-1.26c0-4.16,2.55-7.54,5.7-7.54s5.7,3.38,5.7,7.54A8.69,8.69,0,0,1,28.11,45H41.88V15.54A1.88,1.88,0,0,0,40.1,13.57ZM9.2,34.3a.37.37,0,0,1-.38.36H5.32a.37.37,0,0,1-.38-.36V31.93a.38.38,0,0,1,.38-.37h3.5a.38.38,0,0,1,.38.37Zm0-5.17a.38.38,0,0,1-.38.37H5.32a.38.38,0,0,1-.38-.37V26.76a.38.38,0,0,1,.38-.37h3.5a.38.38,0,0,1,.38.37ZM9.2,24a.38.38,0,0,1-.38.37H5.32A.38.38,0,0,1,4.94,24V21.59a.37.37,0,0,1,.38-.36h3.5a.37.37,0,0,1,.38.36Zm0-5.17a.38.38,0,0,1-.38.37H5.32a.38.38,0,0,1-.38-.37V16.42a.37.37,0,0,1,.38-.36h3.5a.37.37,0,0,1,.38.36ZM20.9,29.56a1,1,0,0,1-1,1H15.52a1,1,0,0,1-1-1v-2.2a1,1,0,0,1,1-1h4.39a1,1,0,0,1,1,1Zm0-6.2a1,1,0,0,1-1,1H15.52a1,1,0,0,1-1-1v-2.2a1,1,0,0,1,1-1h4.39a1,1,0,0,1,1,1Zm0-6.2a1,1,0,0,1-1,1H15.52a1,1,0,0,1-1-1V15a1,1,0,0,1,1-1h4.39a1,1,0,0,1,1,1Zm9.58,12.4a1,1,0,0,1-1,1H25.09a1,1,0,0,1-1-1v-2.2a1,1,0,0,1,1-1h4.39a1,1,0,0,1,1,1Zm0-6.2a1,1,0,0,1-1,1H25.09a1,1,0,0,1-1-1v-2.2a1,1,0,0,1,1-1h4.39a1,1,0,0,1,1,1Zm0-6.2a1,1,0,0,1-1,1H25.09a1,1,0,0,1-1-1V15a1,1,0,0,1,1-1h4.39a1,1,0,0,1,1,1ZM40.06,34.3a.37.37,0,0,1-.38.36h-3.5a.37.37,0,0,1-.38-.36V31.93a.38.38,0,0,1,.38-.37h3.5a.38.38,0,0,1,.38.37Zm0-5.17a.38.38,0,0,1-.38.37h-3.5a.38.38,0,0,1-.38-.37V26.76a.38.38,0,0,1,.38-.37h3.5a.38.38,0,0,1,.38.37Zm0-5.17a.38.38,0,0,1-.38.37h-3.5A.38.38,0,0,1,35.8,24V21.59a.37.37,0,0,1,.38-.36h3.5a.37.37,0,0,1,.38.36Zm0-5.17a.38.38,0,0,1-.38.37h-3.5a.38.38,0,0,1-.38-.37V16.42a.37.37,0,0,1,.38-.36h3.5a.37.37,0,0,1,.38.36Z" transform="translate(-3.12 -1)"/><rect class="cls-1" x="8.38" width="22" height="2.1" rx="1" ry="1"/><rect class="cls-1" x="29.33" y="9.43" width="9.43" height="2.1" rx="1" ry="1"/><rect class="cls-1" y="9.43" width="9.43" height="2.1" rx="1" ry="1"/></svg>