<svg id="Layer_2" data-name="Layer 2" xmlns="http://www.w3.org/2000/svg" viewBox="0 0 82 46.49"><defs><style>.cls-1{fill:#2bbb66;}.cls-2{fill:none;stroke:#2bbb66;stroke-miterlimit:10;stroke-width:2px;}</style></defs><title>VRIcon</title><polygon class="cls-1" points="39.96 39.71 31.46 32.92 31.46 46.49 39.96 39.71"/><path class="cls-1" d="M-3.43,20.14V17.23a16.26,16.26,0,0,0,3.62-.29A3,3,0,0,0,2,15.8a3.54,3.54,0,0,0,.63-2.16,4.15,4.15,0,0,0-.93-2.71A3.34,3.34,0,0,0-1.09,9.8,3.47,3.47,0,0,0-4,11a6.13,6.13,0,0,0-1,3.56H-8.32q0-4.05,2-5.78A7.4,7.4,0,0,1-1.35,7.05,7.48,7.48,0,0,1,4,8.8a5.91,5.91,0,0,1,1.8,4.45,5.45,5.45,0,0,1-1,3.37,6,6,0,0,1-2.32,1.95q4.42,1.3,4.43,5.62a6.23,6.23,0,0,1-2.43,5.37,9.37,9.37,0,0,1-5.7,1.79c-2.79,0-4.84-.74-6.18-2.22a8.84,8.84,0,0,1-2-6.13h3.13a5.94,5.94,0,0,0,1.5,4.14A5,5,0,0,0-1,28.57a4.61,4.61,0,0,0,3.35-1.18,3.94,3.94,0,0,0,1.21-3,3.86,3.86,0,0,0-1.43-3.09,7,7,0,0,0-4.57-1.21Z" transform="translate(24 -1.64)"/><path class="cls-1" d="M25.15,14.38H22.27a5.78,5.78,0,0,0-1.42-3.28A3.71,3.71,0,0,0,18,9.83a3.88,3.88,0,0,0-3.53,2.35,14,14,0,0,0-1.31,6.42A7.4,7.4,0,0,1,18.74,16a6.28,6.28,0,0,1,4.65,2,7.32,7.32,0,0,1,1.93,5.33A8.73,8.73,0,0,1,23.41,29a6.35,6.35,0,0,1-5.21,2.36,7,7,0,0,1-5.92-3c-1.49-2-2.23-5-2.23-9q0-5.67,2.15-9a6.94,6.94,0,0,1,6.19-3.31A6.07,6.07,0,0,1,23.3,9.13,8.27,8.27,0,0,1,25.15,14.38ZM13.34,22.15q.77,6.41,4.7,6.4a3.72,3.72,0,0,0,3.14-1.47,5.62,5.62,0,0,0,1.13-3.52,4.8,4.8,0,0,0-1.07-3.25,3.61,3.61,0,0,0-2.87-1.24Q15.84,19.07,13.34,22.15Z" transform="translate(24 -1.64)"/><path class="cls-1" d="M28.49,19.21q0-5.82,2.21-9a7,7,0,0,1,6-3.17,6.84,6.84,0,0,1,6.09,3.29c1.42,2.19,2.13,5.14,2.13,8.87s-.73,6.85-2.2,9a6.93,6.93,0,0,1-6,3.18,6.85,6.85,0,0,1-6.11-3.3A16.24,16.24,0,0,1,28.49,19.21Zm3.48,0q0,5,1.23,7.22a3.94,3.94,0,0,0,7,0q1.23-2.19,1.23-7.21c0-3.41-.42-5.83-1.24-7.26A3.87,3.87,0,0,0,36.72,9.8a3.75,3.75,0,0,0-3.65,2.44A17.6,17.6,0,0,0,32,19.21Z" transform="translate(24 -1.64)"/><path class="cls-1" d="M-16.78,31.47c0-1.36,1.81-2.63,4.94-3.71l-3.32-1.26C-20.7,28.3-24,30.58-24,33.06c0,5,13.5,9.2,31.63,10.3v-5C-6.47,37.46-16.78,34.72-16.78,31.47Z" transform="translate(24 -1.64)"/><path class="cls-1" d="M50.16,26.83l-3.9,1.08c2.87,1,4.52,2.26,4.52,3.56,0,3.86-14.54,7-32.68,7.12v5C40.23,43.48,58,38.81,58,33.06,58,30.73,55.09,28.58,50.16,26.83Z" transform="translate(24 -1.64)"/><circle class="cls-2" cx="76.08" cy="5.49" r="4.49"/></svg>